<svg xmlns="http://www.w3.org/2000/svg" viewBox="0 0 512 512" role="img" aria-label="Kid English Reading">
  <rect width="512" height="512" rx="120" fill="#fff6ec"/>
  <rect x="54" y="54" width="404" height="404" rx="104" fill="#ff7350"/>
  <path d="M128 151c48-18 90-8 128 22 38-30 80-40 128-22v220c-48-18-90-8-128 22-38-30-80-40-128-22V151Z" fill="#fffaf4" stroke="#202b40" stroke-width="18" stroke-linejoin="round"/>
  <path d="M256 177v216" fill="none" stroke="#202b40" stroke-width="16" stroke-linecap="round"/>
  <path d="m367 97 12 27 29 3-22 19 7 29-26-15-25 15 6-29-22-19 30-3 11-27Z" fill="#ffc438" stroke="#202b40" stroke-width="10" stroke-linejoin="round"/>
</svg>
